<svg xmlns="http://www.w3.org/2000/svg" viewBox="0 0 512 512" width="512" height="512">
    <path fill="#333" d="m332.289429 87.087219c60.033295 -20.4 114.4 -21.8 172.9 1.047241l-11.403595 32.850952c-43.333344 -15.5 -104.1 -16 -148.5 -0.7" transform="rotate(45 418.757 96.1885)">
        <animate attributeName="fill" values="#333;#eee;#333;#333" begin="0s" dur="1s" repeatCount="indefinite"/>
    </path>
    <path fill="#333" d="m398.527466 246.388596c60.033325 -20.4 114.4 -21.8 172.9 1.047241l-11.403564 32.850967c-43.333374 -15.5 -104.1 -16 -148.5 -0.7" transform="rotate(90 484.995 255.49)">
        <animate attributeName="fill" values="#333;#eee;#333;#333" begin="0.125s" dur="1s" repeatCount="indefinite"/>
    </path>
    <path fill="#333" d="m331.332214 404.823669c60.033325 -20.4 114.4 -21.8 172.9 1.047241l-11.403534 32.850952c-43.333405 -15.5 -104.1 -16 -148.5 -0.7" transform="rotate(135 417.8 413.925)">
        <animate attributeName="fill" values="#333;#eee;#333;#333" begin="0.250s" dur="1s" repeatCount="indefinite"/>
    </path>
    <path fill="#333" d="m171.58223 470.323669c60.03331 -20.4 114.4 -21.8 172.9 1.047241l-11.403534 32.850952c-43.333405 -15.5 -104.1 -16 -148.5 -0.7" transform="rotate(180 258.05 479.425)">
        <animate attributeName="fill" values="#333;#eee;#333;#333" begin="0.375s" dur="1s" repeatCount="indefinite"/>
    </path>
    <path fill="#333" d="m13.0822 406.074005c60.033301 -20.4 114.4 -21.8 172.9 1.046997l-11.404007 32.850983c-43.332993 -15.5 -104.1 -16 -148.5 -0.7" transform="rotate(-135 99.55 415.175)">
        <animate attributeName="fill" values="#333;#eee;#333;#333" begin="0.500s" dur="1s" repeatCount="indefinite"/>
    </path>
    <path fill="#333" d="m-53.713486 247.091553c60.03331 -20.4 114.4 -21.8 172.9 1.046997l-11.404022 32.850983c-43.332977 -15.5 -104.1 -16 -148.5 -0.7" transform="rotate(-90 32.754 256.193)">
        <animate attributeName="fill" values="#333;#eee;#333;#333" begin="0.625s" dur="1s" repeatCount="indefinite"/>
    </path>
    <path fill="#333" d="m12.883621 87.061485c60.033295 -20.4 114.4 -21.8 172.9 1.047249l-11.403595 32.850952c-43.333344 -15.5 -104.1 -16 -148.5 -0.7" transform="rotate(-45 99.3514 96.1628)">
        <animate attributeName="fill" values="#333;#eee;#333;#333" begin="0.750s" dur="1s" repeatCount="indefinite"/>
    </path>
    <path fill="#333" d="m172.906631 20.929741c60.03331 -20.4 114.4 -21.8 172.9 1.04723l-11.403595 32.85096c-43.333344 -15.5 -104.1 -16 -148.5 -0.7">
        <animate attributeName="fill" values="#333;#eee;#333;#333" begin="0.875s" dur="1s" repeatCount="indefinite"/>
    </path>
   <path fill="#eee" d="m197.75 459.850006c0 0 -0.1 -48.8 -0.1 -48.850006c0 -0.1 -4.8 -4.4 -33 -1c-28.25 3.4 -62.5 -66.6 -65.2 -69.75c-2.75 -3.1 14 -5.6 26.5 5c12.5 10.6 38.2 33.4 38.5 33.25c0.25 -0.1 31.8 0.6 31.8 0.5c0 -0.1 3 -44.1 20.8 -37.5c17.75 6.6 -72.5 1.4 -97.8 -61.25c-25.25 -62.6 19.2 -124.9 20.2 -115.399994c1 9.5 -17 -35 -10.2 -46.850006c6.75 -11.8 19.2 -9.4 30.2 -5.5c11 3.9 34.2 20.4 39.2 21.25c5 0.9 18.2 -8.2 59.2 -7.5c41 0.7 52.8 6.1 56.8 6.5c3.980804 0.4 30.5 -17.4 38.3 -22.557701c7.730896 -5.2 18.7 -9.1 28.7 0.78849c10.000092 9.9 4.9 67 3.1 55.519211c-1.826904 -11.5 36.2 70.6 6 122.100006c-30.25 51.5 -99.2 52.8 -87.8 55.899994c11.5 3.1 15 33.4 14.8 49.850006l-0.25 65.899994l-22.875 3.875l-0.5 -74.75c0.125 -9.2 -9.1 -10.6 -9.6 -9.75l-0.25 85.875l-21.25 1.25l-0.25 -86.75l-10.5 0l0 86.5l-20.75 -1l-0.25 -84.25c0 -0.1 -8.8 -1.1 -8.2 10.75l-0.5 72.2"/>
</svg>
