<svg xmlns="http://www.w3.org/2000/svg" viewBox="0 0 512 512" width="512" height="512"><path fill="#333" d="m332.289429 87.087219c60.033295 -20 114 -21 172 1.047241l-11.403595 32.850952c-43.333344 -15 -104 -15 -148 0" transform="rotate(45 418.757 96.1885)"><animate attributeName="fill" values="#333;#eee;#333;#333" begin="0s" dur="1s" repeatCount="indefinite"/></path><path fill="#333" d="m398.527466 246.388596c60.033325 -20 114 -21 172 1.047241l-11.403564 32.850967c-43.333374 -15 -104 -15 -148 0" transform="rotate(90 484.995 255.49)"><animate attributeName="fill" values="#333;#eee;#333;#333" begin="0.125s" dur="1s" repeatCount="indefinite"/></path><path fill="#333" d="m331.332214 404.823669c60.033325 -20 114 -21 172 1.047241l-11.403534 32.850952c-43.333405 -15 -104 -15 -148 0" transform="rotate(135 417.8 413.925)"><animate attributeName="fill" values="#333;#eee;#333;#333" begin="0.250s" dur="1s" repeatCount="indefinite"/></path><path fill="#333" d="m171.58223 470.323669c60.03331 -20 114 -21 172 1.047241l-11.403534 32.850952c-43.333405 -15 -104 -15 -148 0" transform="rotate(180 258.05 479.425)"><animate attributeName="fill" values="#333;#eee;#333;#333" begin="0.375s" dur="1s" repeatCount="indefinite"/></path><path fill="#333" d="m13.0822 406.074005c60.033301 -20 114 -21 172 1.046997l-11.404007 32.850983c-43.332993 -15 -104 -15 -148 0" transform="rotate(-135 99.55 415.175)"><animate attributeName="fill" values="#333;#eee;#333;#333" begin="0.500s" dur="1s" repeatCount="indefinite"/></path><path fill="#333" d="m-53.713486 247.091553c60.03331 -20 114 -21 172 1.046997l-11.404022 32.850983c-43.332977 -15 -104 -15 -148 0" transform="rotate(-90 32.754 256.193)"><animate attributeName="fill" values="#333;#eee;#333;#333" begin="0.625s" dur="1s" repeatCount="indefinite"/></path><path fill="#333" d="m12.883621 87.061485c60.033295 -20 114 -21 172 1.047249l-11.403595 32.850952c-43.333344 -15 -104 -15 -148 0" transform="rotate(-45 99.3514 96.1628)"><animate attributeName="fill" values="#333;#eee;#333;#333" begin="0.750s" dur="1s" repeatCount="indefinite"/></path><path fill="#333" d="m172.906631 20.929741c60.03331 -20 114 -21 172 1.04723l-11.403595 32.85096c-43.333344 -15 -104 -15 -148 0"><animate attributeName="fill" values="#333;#eee;#333;#333" begin="0.875s" dur="1s" repeatCount="indefinite"/></path><path fill="#eee" d="m 197 459 c 0 0 0 -48 0 -48 0 0 -4 -4 -33 -1 -28 3 -62 -66 -65 -69 24 -10 43 26 65 38 0 0 31 0 31 0 0 0 3 -44 20 -37 17 6 -72 1 -97 -61 -25 -62 19 -126 20 -115 0 9 -17 -35 -10 -46 20 -24 50 11 69 15 5 0 18 -8 59 -7 41 0 55 8 60 6 22 -10 51 -32 65 -17 10 12 -1 61 -1 49 0 -12 43 81 6 132 C 357 344 291 341 302 344 c 21 15 14 91 14 115 l -22 4 0 -74 c 0 -9 -9 -10 -9 -9 l 0 85 -21 1 0 -86 -10 0 0 86 -20 -1 0 -83 c 0 0 -8 -1 -8 10 l 0 72"/></svg>