<svg viewBox="0 0 512 512" width="512" height="512" xmlns="http://www.w3.org/2000/svg">
    <path fill="#333" d="m332.289429,87.087219c60.033295,-20.366676 114.402222,-21.83609 172.935547,1.047241l-11.403595,32.850952c-43.333344,-15.5 -104.147491,-15.984329 -148.480804,-0.734329" transform="rotate(45 418.757 96.1885)">
        <animate attributeName="fill" values="#333;#eee;#333;#333" begin="0s" dur="1s" repeatCount="indefinite"/>
    </path>
    <path fill="#333" d="m398.527466,246.388596c60.033325,-20.366684 114.402222,-21.83609 172.935547,1.047241l-11.403564,32.850967c-43.333374,-15.500031 -104.147491,-15.984344 -148.480835,-0.734344" transform="rotate(90 484.995 255.49)">
        <animate attributeName="fill" values="#333;#eee;#333;#333" begin="0.125s" dur="1s" repeatCount="indefinite"/>
    </path>
    <path fill="#333" d="m331.332214,404.823669c60.033325,-20.366699 114.402252,-21.83609 172.935547,1.047241l-11.403534,32.850952c-43.333405,-15.500031 -104.147522,-15.984344 -148.480865,-0.734344" transform="rotate(135 417.8 413.925)">
        <animate attributeName="fill" values="#333;#eee;#333;#333" begin="0.250s" dur="1s" repeatCount="indefinite"/>
    </path>
    <path fill="#333" d="m171.58223,470.323669c60.03331,-20.366699 114.402237,-21.83609 172.935532,1.047241l-11.403534,32.850952c-43.333405,-15.500031 -104.147522,-15.984344 -148.48085,-0.734344" transform="rotate(180 258.05 479.425)">
        <animate attributeName="fill" values="#333;#eee;#333;#333" begin="0.375s" dur="1s" repeatCount="indefinite"/>
    </path>
    <path fill="#333" d="m13.0822,406.074005c60.033301,-20.367004 114.401801,-21.835999 172.935805,1.046997l-11.404007,32.850983c-43.332993,-15.5 -104.147301,-15.983978 -148.480589,-0.733978" transform="rotate(-135 99.55 415.175)">
        <animate attributeName="fill" values="#333;#eee;#333;#333" begin="0.500s" dur="1s" repeatCount="indefinite"/>
    </path>
    <path fill="#333" d="m-53.713486,247.091553c60.03331,-20.367004 114.40181,-21.835999 172.935806,1.046997l-11.404022,32.850983c-43.332977,-15.5 -104.147277,-15.983978 -148.480576,-0.733978" transform="rotate(-90 32.754 256.193)">
        <animate attributeName="fill" values="#333;#eee;#333;#333" begin="0.625s" dur="1s" repeatCount="indefinite"/>
    </path>
    <path fill="#333" d="m12.883621,87.061485c60.033295,-20.366669 114.402206,-21.836082 172.935562,1.047249l-11.403595,32.850952c-43.333344,-15.5 -104.147507,-15.984329 -148.48082,-0.734337" transform="rotate(-45 99.3514 96.1628)">
        <animate attributeName="fill" values="#333;#eee;#333;#333" begin="0.750s" dur="1s" repeatCount="indefinite"/>
    </path>
    <path fill="#333" d="m172.906631,20.929741c60.03331,-20.366681 114.402206,-21.836091 172.935562,1.04723l-11.403595,32.85096c-43.333344,-15.5 -104.147507,-15.984322 -148.48082,-0.734329">
        <animate attributeName="fill" values="#333;#eee;#333;#333" begin="0.875s" dur="1s" repeatCount="indefinite"/>
    </path>
   <path fill="#eee" d="m 197.70005,459.10076 c 0,0 -0.05,-48.05075 -0.05,-48.10076 0,-0.1 -4.8,-4.4 -33,-1 -28.25,3.4 -62.5,-66.6 -65.2,-69.75 24.9742,-10.5411 43.56416,26.28397 65,38.25 0.25,-0.1 31.8,0.6 31.8,0.5 0,-0.1 3,-44.1 20.8,-37.5 17.75,6.6 -72.5,1.4 -97.8,-61.25 -25.25,-62.6 19.2,-126.3128 20.2,-115.39999 0.87169,9.51263 -17,-35 -10.2,-46.85001 20.36879,-24.535047 50.72227,11.08918 69.4,15.75 5,0.9 18.2,-8.2 59.2,-7.5 41,0.7 55.90817,8.64305 60.47329,6.5 22.23196,-10.15021 51.89079,-32.873873 65.02207,-17.5308 10.26558,12.47308 -1.03095,61.69301 -1.13841,49.02031 -0.11002,-12.97508 43.26402,81.05475 6.28256,132.55475 C 357.10927,344.90353 291.55,341.40001 302.95,344.5 c 21.59256,15.60457 14.63804,91.89354 14.55,115.10065 l -22.875,4.22465 -0.5,-74.4503 c 0.125,-9.2 -9.1,-10.6 -9.6,-9.75 l -0.25,85.52535 -21.25,1.25 -0.25,-86.40035 -10.5,0 0,86.5 -20.75,-1.34965 -0.25,-83.90035 c 0,-0.1 -8.8,-1.1 -8.2,10.75 l -0.5999,72.0002"/>
</svg>