<svg viewBox="0 0 512 512" width="512" height="512" xmlns="http://www.w3.org/2000/svg">
    <path fill="#333" d="m332.289429,87.087219c60.033295,-20.366676 114.402222,-21.83609 172.935547,1.047241l-11.403595,32.850952c-43.333344,-15.5 -104.147491,-15.984329 -148.480804,-0.734329" transform="rotate(45 418.757 96.1885)">
        <animate attributeName="fill" values="#333;#eee;#333;#333" begin="0s" dur="1s" repeatCount="indefinite"/>
    </path>
    <path fill="#333" d="m398.527466,246.388596c60.033325,-20.366684 114.402222,-21.83609 172.935547,1.047241l-11.403564,32.850967c-43.333374,-15.500031 -104.147491,-15.984344 -148.480835,-0.734344" transform="rotate(90 484.995 255.49)">
        <animate attributeName="fill" values="#333;#eee;#333;#333" begin="0.125s" dur="1s" repeatCount="indefinite"/>
    </path>
    <path fill="#333" d="m331.332214,404.823669c60.033325,-20.366699 114.402252,-21.83609 172.935547,1.047241l-11.403534,32.850952c-43.333405,-15.500031 -104.147522,-15.984344 -148.480865,-0.734344" transform="rotate(135 417.8 413.925)">
        <animate attributeName="fill" values="#333;#eee;#333;#333" begin="0.250s" dur="1s" repeatCount="indefinite"/>
    </path>
    <path fill="#333" d="m171.58223,470.323669c60.03331,-20.366699 114.402237,-21.83609 172.935532,1.047241l-11.403534,32.850952c-43.333405,-15.500031 -104.147522,-15.984344 -148.48085,-0.734344" transform="rotate(180 258.05 479.425)">
        <animate attributeName="fill" values="#333;#eee;#333;#333" begin="0.375s" dur="1s" repeatCount="indefinite"/>
    </path>
    <path fill="#333" d="m13.0822,406.074005c60.033301,-20.367004 114.401801,-21.835999 172.935805,1.046997l-11.404007,32.850983c-43.332993,-15.5 -104.147301,-15.983978 -148.480589,-0.733978" transform="rotate(-135 99.55 415.175)">
        <animate attributeName="fill" values="#333;#eee;#333;#333" begin="0.500s" dur="1s" repeatCount="indefinite"/>
    </path>
    <path fill="#333" d="m-53.713486,247.091553c60.03331,-20.367004 114.40181,-21.835999 172.935806,1.046997l-11.404022,32.850983c-43.332977,-15.5 -104.147277,-15.983978 -148.480576,-0.733978" transform="rotate(-90 32.754 256.193)">
        <animate attributeName="fill" values="#333;#eee;#333;#333" begin="0.625s" dur="1s" repeatCount="indefinite"/>
    </path>
    <path fill="#333" d="m12.883621,87.061485c60.033295,-20.366669 114.402206,-21.836082 172.935562,1.047249l-11.403595,32.850952c-43.333344,-15.5 -104.147507,-15.984329 -148.48082,-0.734337" transform="rotate(-45 99.3514 96.1628)">
        <animate attributeName="fill" values="#333;#eee;#333;#333" begin="0.750s" dur="1s" repeatCount="indefinite"/>
    </path>
    <path fill="#333" d="m172.906631,20.929741c60.03331,-20.366681 114.402206,-21.836091 172.935562,1.04723l-11.403595,32.85096c-43.333344,-15.5 -104.147507,-15.984322 -148.48082,-0.734329">
        <animate attributeName="fill" values="#333;#eee;#333;#333" begin="0.875s" dur="1s" repeatCount="indefinite"/>
    </path>
   <path fill="#eee" d="m 197.75,459.85001 c 0,0 -0.1,-48.8 -0.1,-48.85001 0,-0.1 -4.8,-4.4 -33,-1 -28.25,3.4 -62.5,-66.6 -65.2,-69.75 -2.75,-3.1 14,-5.6 26.5,5 12.5,10.6 38.2,33.4 38.5,33.25 0.25,-0.1 31.8,0.6 31.8,0.5 0,-0.1 3,-44.1 20.8,-37.5 17.75,6.6 -72.5,1.4 -97.8,-61.25 -25.25,-62.6 19.2,-124.9 20.2,-115.39999 1,9.5 -17,-35 -10.2,-46.85001 6.75,-11.8 19.2,-9.4 30.2,-5.5 11,3.9 34.2,20.4 39.2,21.25 5,0.9 18.2,-8.2 59.2,-7.5 41,0.7 55.90817,8.64305 60.47329,6.5 4.82849,-1.86049 25.97903,-13.72671 37.16976,-19.44953 11.12162,-5.48256 17.85231,-7.96976 27.85231,1.91873 6.04425,9.9 -3.57682,58.80574 -0.85585,48.45519 2.69408,-10.36975 42.98146,81.61987 6,133.11987 C 357.10927,344.90353 291.55,341.40001 302.95,344.5 c 11.5,3.1 15,33.4 14.8,49.85001 l -0.25,65.89999 -22.875,3.875 -0.5,-74.75 c 0.125,-9.2 -9.1,-10.6 -9.6,-9.75 l -0.25,85.875 -21.25,1.25 -0.25,-86.75 -10.5,0 0,86.5 -20.75,-1 -0.25,-84.25 c 0,-0.1 -8.8,-1.1 -8.2,10.75 l -0.5,72.2"/>
</svg>